# xmcd CD Database Entry
#
# Track frame offsets:
# 150
# 8114
# 16214
# 30276
# 42880
# 55609
# 64583
# 80903
# 93117
# 102475
# 112969
# 126946
# 138718
# 156342
# 161797
# 170500
# 183130
# 195406
# 205291
# 222935
# 236789
# 248083
# 261390
# 275473
# 291010
# 301297
# 319032
#
# Disc length: 4481 seconds
#
# Revision: 1
# Processed by: cddbd v1.4PL0 Copyright (c) Steve Scherf et al.
# Submitted via: tcd 2.0b
#
DISCID=7a117f1b
DTITLE=i
DYEAR=1900
DGENRE=
TTITLE0=Skladba 1
TTITLE1=Skladba 2
TTITLE2=Skladba 3
TTITLE3=Skladba 4
TTITLE4=Skladba 5
TTITLE5=Skladba 6
TTITLE6=Skladba 7
TTITLE7=Skladba 8
TTITLE8=Skladba 9
TTITLE9=Skladba 10
TTITLE10=Skladba 11
TTITLE11=Skladba 12
TTITLE12=Skladba 13
TTITLE13=Skladba 14
TTITLE14=Skladba 15
TTITLE15=Skladba 16
TTITLE16=Skladba 17
TTITLE17=Skladba 18
TTITLE18=Skladba 19
TTITLE19=Skladba 20
TTITLE20=Skladba 21
TTITLE21=Skladba 22
TTITLE22=Skladba 23
TTITLE23=Skladba 24
TTITLE24=Skladba 25
TTITLE25=Skladba 26
TTITLE26=Skladba 27
EXTD=
EXTT0=
EXTT1=
EXTT2=
EXTT3=
EXTT4=
EXTT5=
EXTT6=
EXTT7=
EXTT8=
EXTT9=
EXTT10=
EXTT11=
EXTT12=
EXTT13=
EXTT14=
EXTT15=
EXTT16=
EXTT17=
EXTT18=
EXTT19=
EXTT20=
EXTT21=
EXTT22=
EXTT23=
EXTT24=
EXTT25=
EXTT26=
PLAYORDER=
